<mxfile host="app.diagrams.net" agent="Mozilla/5.0 (X11; Linux x86_64; rv:137.0) Gecko/20100101 Firefox/137.0" version="26.0.10">
  <diagram name="Page-1" id="tZt_VaF3xgf_8bT9H7Sv">
    <mxGraphModel dx="1050" dy="613" grid="1" gridSize="10" guides="1" tooltips="1" connect="1" arrows="1" fold="1" page="1" pageScale="1" pageWidth="850" pageHeight="1100" math="0" shadow="0">
      <root>
        <mxCell id="0" />
        <mxCell id="1" parent="0" />
        <mxCell id="ys8rTesJug1A8LACC2Mp-6" value="" style="rounded=0;orthogonalLoop=1;jettySize=auto;endArrow=none;endFill=0;fontColor=default;labelBackgroundColor=default;" parent="1" source="ys8rTesJug1A8LACC2Mp-2" target="ys8rTesJug1A8LACC2Mp-4" edge="1">
          <mxGeometry relative="1" as="geometry" />
        </mxCell>
        <mxCell id="ys8rTesJug1A8LACC2Mp-7" value="" style="rounded=0;orthogonalLoop=1;jettySize=auto;endArrow=none;endFill=0;fontColor=default;labelBackgroundColor=default;" parent="1" source="ys8rTesJug1A8LACC2Mp-2" target="ys8rTesJug1A8LACC2Mp-5" edge="1">
          <mxGeometry relative="1" as="geometry" />
        </mxCell>
        <mxCell id="ys8rTesJug1A8LACC2Mp-2" value="CREATOR" style="shape=umlActor;verticalLabelPosition=bottom;verticalAlign=top;outlineConnect=0;fontColor=default;labelBackgroundColor=default;" parent="1" vertex="1">
          <mxGeometry x="240" y="210" width="30" height="60" as="geometry" />
        </mxCell>
        <mxCell id="ys8rTesJug1A8LACC2Mp-3" value="Sistema" style="shape=umlFrame;pointerEvents=0;fontColor=default;labelBackgroundColor=default;" parent="1" vertex="1">
          <mxGeometry x="320" y="130" width="420" height="210" as="geometry" />
        </mxCell>
        <mxCell id="ys8rTesJug1A8LACC2Mp-4" value="Compilar programa" style="ellipse;fontColor=default;labelBackgroundColor=default;" parent="1" vertex="1">
          <mxGeometry x="360" y="160" width="140" height="70" as="geometry" />
        </mxCell>
        <mxCell id="ys8rTesJug1A8LACC2Mp-5" value="Compilar biblioteca" style="ellipse;fontColor=default;labelBackgroundColor=default;" parent="1" vertex="1">
          <mxGeometry x="360" y="250" width="140" height="70" as="geometry" />
        </mxCell>
        <mxCell id="wv2uv3PIkFndQq-syRsK-2" style="edgeStyle=none;curved=1;rounded=0;orthogonalLoop=1;jettySize=auto;html=1;fontSize=12;startSize=8;endSize=8;endArrow=open;endFill=0;dashed=1;" edge="1" parent="1" source="wv2uv3PIkFndQq-syRsK-1" target="ys8rTesJug1A8LACC2Mp-5">
          <mxGeometry relative="1" as="geometry" />
        </mxCell>
        <mxCell id="wv2uv3PIkFndQq-syRsK-5" value="&amp;lt;&amp;lt;extend&amp;gt;&amp;gt;" style="edgeLabel;html=1;align=center;verticalAlign=middle;resizable=0;points=[];fontSize=12;labelBackgroundColor=none;" vertex="1" connectable="0" parent="wv2uv3PIkFndQq-syRsK-2">
          <mxGeometry x="0.3494" y="-1" relative="1" as="geometry">
            <mxPoint x="26" y="10" as="offset" />
          </mxGeometry>
        </mxCell>
        <mxCell id="wv2uv3PIkFndQq-syRsK-3" style="edgeStyle=none;curved=1;rounded=0;orthogonalLoop=1;jettySize=auto;html=1;fontSize=12;startSize=8;endSize=8;dashed=1;endArrow=open;endFill=0;" edge="1" parent="1" source="wv2uv3PIkFndQq-syRsK-1" target="ys8rTesJug1A8LACC2Mp-4">
          <mxGeometry relative="1" as="geometry" />
        </mxCell>
        <mxCell id="wv2uv3PIkFndQq-syRsK-6" value="&amp;lt;&amp;lt;extend&amp;gt;&amp;gt;" style="edgeLabel;html=1;align=center;verticalAlign=middle;resizable=0;points=[];fontSize=12;labelBackgroundColor=none;" vertex="1" connectable="0" parent="wv2uv3PIkFndQq-syRsK-3">
          <mxGeometry x="-0.1021" y="2" relative="1" as="geometry">
            <mxPoint x="6" y="-16" as="offset" />
          </mxGeometry>
        </mxCell>
        <mxCell id="wv2uv3PIkFndQq-syRsK-1" value="Cargar ISA" style="ellipse;fontColor=default;labelBackgroundColor=default;" vertex="1" parent="1">
          <mxGeometry x="580" y="205" width="140" height="70" as="geometry" />
        </mxCell>
      </root>
    </mxGraphModel>
  </diagram>
</mxfile>
